<?xml version="1.0" encoding="UTF-8"?>
<svg xmlns="http://www.w3.org/2000/svg" xmlns:xlink="http://www.w3.org/1999/xlink" width="3361" height="1441" viewBox="0 0 3361 1441">

<path fill-rule="evenodd" fill="rgb(100%, 100%, 100%)" fill-opacity="1" d="M 677.621094 102.050781 L 692.042969 373.019531 L 748.269531 322.480469 L 697.722656 378.699219 L 968.699219 393.121094 L 697.722656 407.550781 L 847.097656 564.679688 L 692.042969 413.230469 L 677.621094 684.203125 L 663.195312 413.230469 L 606.96875 463.773438 L 657.515625 407.550781 L 386.539062 393.121094 L 657.515625 378.699219 L 509.300781 217.011719 L 663.195312 373.019531 L 677.621094 102.050781 "/>
<path fill-rule="evenodd" fill="rgb(100%, 100%, 100%)" fill-opacity="1" d="M 1601.949219 187.300781 L 1416.929688 393.121094 L 1601.949219 598.949219 L 1396.128906 413.929688 L 1190.300781 598.949219 L 1375.320312 393.121094 L 1190.300781 187.300781 L 1396.128906 372.320312 L 1601.949219 187.300781 "/>
<path fill-rule="evenodd" fill="rgb(100%, 100%, 100%)" fill-opacity="1" d="M 1496.039062 393.121094 L 1401.171875 398.171875 L 1396.128906 493.039062 L 1391.078125 398.171875 L 1296.210938 393.121094 L 1391.078125 388.078125 L 1396.128906 293.210938 L 1401.171875 388.078125 L 1496.039062 393.121094 "/>
<path fill-rule="evenodd" fill="rgb(100%, 100%, 100%)" fill-opacity="1" d="M 823.160156 796.167969 L 699.449219 1035.648438 L 968.699219 1048.25 L 699.449219 1060.855469 L 823.160156 1300.335938 L 677.621094 1073.460938 L 532.078125 1300.335938 L 655.789062 1060.855469 L 386.539062 1048.25 L 655.789062 1035.648438 L 532.078125 796.167969 L 677.621094 1023.042969 L 823.160156 796.167969 "/>
<path fill-rule="evenodd" fill="rgb(100%, 100%, 100%)" fill-opacity="1" d="M 1648.210938 902.710938 L 1427.640625 1044.203125 L 1514.128906 1048.25 L 1427.640625 1052.300781 L 1648.210938 1193.789062 L 1415.390625 1073.523438 L 1455.128906 1150.445312 L 1408.378906 1077.570312 L 1396.128906 1339.332031 L 1383.871094 1077.570312 L 1337.121094 1150.445312 L 1376.859375 1073.523438 L 1144.039062 1193.789062 L 1364.609375 1052.300781 L 1278.121094 1048.25 L 1364.609375 1044.203125 L 1144.039062 902.710938 L 1376.859375 1022.980469 L 1337.121094 946.058594 L 1383.871094 1018.929688 L 1396.128906 757.171875 L 1408.378906 1018.929688 L 1455.128906 946.058594 L 1415.390625 1022.980469 L 1648.210938 902.710938 "/>
<path fill-rule="evenodd" fill="rgb(100%, 100%, 100%)" fill-opacity="1" d="M 2716.390625 843.476562 L 2728.988281 1127.28125 L 2968.46875 1280.097656 L 2716.390625 1149.109375 L 2464.300781 1280.097656 L 2703.78125 1127.28125 L 2716.390625 843.476562 "/>
<path fill-rule="evenodd" fill="rgb(100%, 100%, 100%)" fill-opacity="1" d="M 2703.550781 88.339844 L 2713.851562 354.570312 L 2909.378906 173.589844 L 2728.398438 369.128906 L 2994.628906 379.421875 L 2728.398438 389.710938 L 2909.378906 585.242188 L 2713.851562 404.261719 L 2703.550781 670.5 L 2693.261719 404.261719 L 2497.730469 585.242188 L 2678.710938 389.710938 L 2412.480469 379.421875 L 2678.710938 369.128906 L 2497.730469 173.589844 L 2693.261719 354.570312 L 2703.550781 88.339844 "/>
<path fill-rule="evenodd" fill="rgb(100%, 100%, 100%)" fill-opacity="1" d="M 409.066406 77.761719 L 414.011719 170.730469 L 415.960938 172.671875 L 508.921875 177.621094 L 415.960938 182.570312 L 414.011719 184.519531 L 409.066406 277.480469 L 404.117188 184.519531 L 402.167969 182.570312 L 309.207031 177.621094 L 402.167969 172.671875 L 404.117188 170.730469 L 409.066406 77.761719 "/>
<path fill-rule="evenodd" fill="rgb(100%, 100%, 100%)" fill-opacity="1" d="M 536.324219 536.316406 L 539.28125 591.875 L 540.445312 593.039062 L 596.003906 595.996094 L 540.445312 598.953125 L 539.28125 600.117188 L 536.324219 655.675781 L 533.367188 600.117188 L 532.199219 598.953125 L 476.640625 595.996094 L 532.199219 593.039062 L 533.367188 591.875 L 536.324219 536.316406 "/>
<path fill-rule="evenodd" fill="rgb(100%, 100%, 100%)" fill-opacity="1" d="M 1544.808594 202.648438 L 1482.359375 146.511719 L 1419.921875 202.648438 L 1476.050781 140.199219 L 1419.921875 77.761719 L 1482.359375 133.890625 L 1544.808594 77.761719 L 1488.679688 140.199219 L 1544.808594 202.648438 "/>
<path fill-rule="evenodd" fill="rgb(100%, 100%, 100%)" fill-opacity="1" d="M 1369.101562 630.351562 L 1338.679688 603.007812 L 1308.261719 630.351562 L 1335.609375 599.933594 L 1308.261719 569.515625 L 1338.679688 596.855469 L 1369.101562 569.515625 L 1341.761719 599.933594 L 1369.101562 630.351562 "/>
<path fill-rule="evenodd" fill="rgb(100%, 100%, 100%)" fill-opacity="1" d="M 2960.300781 56.328125 L 2963.539062 140.058594 L 3025.03125 83.148438 L 2968.109375 144.640625 L 3051.839844 147.878906 L 2968.109375 151.109375 L 3025.03125 212.609375 L 2963.539062 155.691406 L 2960.300781 239.421875 L 2957.058594 155.691406 L 2895.570312 212.609375 L 2952.488281 151.109375 L 2868.761719 147.878906 L 2952.488281 144.640625 L 2895.570312 83.148438 L 2957.058594 140.058594 L 2960.300781 56.328125 "/>
<path fill-rule="evenodd" fill="rgb(100%, 100%, 100%)" fill-opacity="1" d="M 2567.601562 594.554688 L 2570.21875 662.308594 L 2619.980469 616.253906 L 2573.921875 666.015625 L 2641.679688 668.632812 L 2573.921875 671.253906 L 2619.980469 721.011719 L 2570.21875 674.953125 L 2567.601562 742.710938 L 2564.980469 674.953125 L 2515.21875 721.011719 L 2561.28125 671.253906 L 2493.519531 668.632812 L 2561.28125 666.015625 L 2515.21875 616.253906 L 2564.980469 662.308594 L 2567.601562 594.554688 "/>
<path fill-rule="evenodd" fill="rgb(100%, 100%, 100%)" fill-opacity="1" d="M 453.25 1127.925781 L 423.636719 1185.257812 L 488.09375 1188.273438 L 423.636719 1191.292969 L 453.25 1248.621094 L 418.410156 1194.308594 L 383.566406 1248.621094 L 413.183594 1191.292969 L 348.726562 1188.273438 L 413.183594 1185.257812 L 383.566406 1127.925781 L 418.410156 1182.242188 L 453.25 1127.925781 "/>
<path fill-rule="evenodd" fill="rgb(100%, 100%, 100%)" fill-opacity="1" d="M 922.058594 885.265625 L 904.242188 919.757812 L 943.019531 921.570312 L 904.242188 923.386719 L 922.058594 957.878906 L 901.097656 925.203125 L 880.136719 957.878906 L 897.953125 923.386719 L 859.175781 921.570312 L 897.953125 919.757812 L 880.136719 885.265625 L 901.097656 917.941406 L 922.058594 885.265625 "/>
<path fill-rule="evenodd" fill="rgb(100%, 100%, 100%)" fill-opacity="1" d="M 1625.328125 772.527344 L 1572.378906 806.496094 L 1593.140625 807.46875 L 1572.378906 808.4375 L 1625.328125 842.40625 L 1569.441406 813.535156 L 1578.980469 832 L 1567.761719 814.507812 L 1564.808594 877.347656 L 1561.871094 814.507812 L 1550.648438 832 L 1560.191406 813.535156 L 1504.300781 842.40625 L 1557.25 808.4375 L 1536.488281 807.46875 L 1557.25 806.496094 L 1504.300781 772.527344 L 1560.191406 801.398438 L 1550.648438 782.933594 L 1561.871094 800.429688 L 1564.808594 737.589844 L 1567.761719 800.429688 L 1578.980469 782.933594 L 1569.441406 801.398438 L 1625.328125 772.527344 "/>
<path fill-rule="evenodd" fill="rgb(100%, 100%, 100%)" fill-opacity="1" d="M 1334.429688 1231.597656 L 1301.871094 1252.480469 L 1314.640625 1253.078125 L 1301.871094 1253.675781 L 1334.429688 1274.5625 L 1300.070312 1256.808594 L 1305.929688 1268.164062 L 1299.03125 1257.40625 L 1297.21875 1296.046875 L 1295.410156 1257.40625 L 1288.511719 1268.164062 L 1294.378906 1256.808594 L 1260.011719 1274.5625 L 1292.570312 1253.675781 L 1279.800781 1253.078125 L 1292.570312 1252.480469 L 1260.011719 1231.597656 L 1294.378906 1249.347656 L 1288.511719 1237.992188 L 1295.410156 1248.75 L 1297.21875 1210.113281 L 1299.03125 1248.75 L 1305.929688 1237.992188 L 1300.058594 1249.347656 L 1334.429688 1231.597656 "/>
<path fill-rule="evenodd" fill="rgb(100%, 100%, 100%)" fill-opacity="1" d="M 2047.449219 98.261719 L 2061.289062 370.289062 L 2324.28125 299.390625 L 2069.839844 396.609375 L 2218.539062 624.824219 L 2047.449219 412.890625 L 1876.359375 624.824219 L 2025.050781 396.609375 L 1770.609375 299.390625 L 2033.609375 370.289062 L 2047.449219 98.261719 "/>
<path fill-rule="evenodd" fill="rgb(100%, 100%, 100%)" fill-opacity="1" d="M 2169.371094 783.796875 L 2069.011719 1031.964844 L 2331.160156 977.773438 L 2074.558594 1054.035156 L 2280.378906 1225.203125 L 2060.769531 1072.136719 L 2055.269531 1339.773438 L 2038.011719 1072.636719 L 1825.339844 1235.203125 L 2023.441406 1055.160156 L 1763.738281 990.242188 L 2028.011719 1032.867188 L 1916.839844 789.347656 L 2048.289062 1022.546875 L 2169.371094 783.796875 "/>
<path fill-rule="evenodd" fill="rgb(100%, 100%, 100%)" fill-opacity="1" d="M 2185.878906 138.871094 L 2188.109375 182.71875 L 2230.5 171.289062 L 2189.488281 186.96875 L 2213.460938 223.761719 L 2185.878906 189.589844 L 2158.300781 223.761719 L 2182.269531 186.96875 L 2141.25 171.289062 L 2183.648438 182.71875 L 2185.878906 138.871094 "/>
<path fill-rule="evenodd" fill="rgb(100%, 100%, 100%)" fill-opacity="1" d="M 1835 392.410156 L 1838.339844 457.980469 L 1901.730469 440.890625 L 1840.398438 464.324219 L 1876.238281 519.332031 L 1835 468.246094 L 1793.761719 519.332031 L 1829.609375 464.324219 L 1768.28125 440.890625 L 1831.671875 457.980469 L 1835 392.410156 "/>
<path fill-rule="evenodd" fill="rgb(100%, 100%, 100%)" fill-opacity="1" d="M 2072.148438 727.644531 L 2051.601562 778.453125 L 2105.28125 767.359375 L 2052.738281 782.972656 L 2094.878906 818.019531 L 2049.910156 786.679688 L 2048.789062 841.476562 L 2045.261719 786.78125 L 2001.710938 820.066406 L 2042.269531 783.203125 L 1989.101562 769.910156 L 2043.210938 778.640625 L 2020.449219 728.78125 L 2047.359375 776.527344 L 2072.148438 727.644531 "/>
<path fill-rule="evenodd" fill="rgb(100%, 100%, 100%)" fill-opacity="1" d="M 1991.078125 1214.828125 L 1960.441406 1290.574219 L 2040.460938 1274.035156 L 1962.140625 1297.3125 L 2024.960938 1349.554688 L 1957.929688 1302.835938 L 1956.25 1384.523438 L 1950.980469 1302.988281 L 1886.070312 1352.609375 L 1946.53125 1297.652344 L 1867.261719 1277.839844 L 1947.929688 1290.851562 L 1914 1216.519531 L 1954.121094 1287.699219 L 1991.078125 1214.828125 "/>
<path fill-rule="evenodd" fill="rgb(100%, 100%, 100%)" fill-opacity="1" d="M 2861.171875 943.171875 L 2864.988281 1029.203125 L 2937.578125 1075.527344 L 2861.171875 1035.820312 L 2784.75 1075.527344 L 2857.351562 1029.203125 L 2861.171875 943.171875 "/>
<path fill-rule="evenodd" fill="rgb(100%, 100%, 100%)" fill-opacity="1" d="M 2581.839844 1059.628906 L 2583.890625 1105.648438 L 2622.71875 1130.429688 L 2581.839844 1109.1875 L 2540.96875 1130.429688 L 2579.800781 1105.648438 L 2581.839844 1059.628906 "/>
<path fill-rule="evenodd" fill="rgb(100%, 100%, 100%)" fill-opacity="1" d="M 1233.320312 391.75 L 1186.398438 349.570312 L 1139.488281 391.75 L 1181.660156 344.828125 L 1139.488281 297.921875 L 1186.398438 340.089844 L 1233.320312 297.921875 L 1191.140625 344.828125 L 1233.320312 391.75 "/>
</svg>
